<?xml version="1.0" encoding="utf-8"?>
<!-- Uploaded to: SVG Repo, www.svgrepo.com, Generator: SVG Repo Mixer Tools -->
<svg width="800px" height="800px" viewBox="0 0 48 48" fill="none" xmlns="http://www.w3.org/2000/svg">
<g id="game">
<g id="game_2">
<path id="Combined Shape" fill-rule="evenodd" clip-rule="evenodd" d="M24.9804 15.056V20C24.9804 20.5523 24.5327 21 23.9804 21C23.4281 21 22.9804 20.5523 22.9804 20V18.0006H7C6.44744 18.0006 6 18.4477 6 19.0006V30.9726C6 31.5249 5.55228 31.9726 5 31.9726C4.44772 31.9726 4 31.5249 4 30.9726V19.0006C4 17.3429 5.34318 16.0006 7 16.0006H22.9804V15.056C22.9804 11.7722 25.1147 9.982 28.0524 9.982C30.1752 9.982 31.0204 8.93867 31.0204 7C31.0204 6.44772 31.4681 6 32.0204 6C32.5727 6 33.0204 6.44772 33.0204 7C33.0204 9.96141 31.3835 11.982 28.0524 11.982C26.1491 11.982 24.9804 12.9623 24.9804 15.056ZM27.962 18H41C41.5526 18 42 18.4471 42 19V37C42 37.5529 41.5526 38 41 38H7C6.44744 38 6 37.5529 6 37V35.044C6 34.4917 5.55228 34.044 5 34.044C4.44772 34.044 4 34.4917 4 35.044V37C4 38.6577 5.34318 40 7 40H41C42.6568 40 44 38.6577 44 37V19C44 17.3423 42.6568 16 41 16H27.962C27.4097 16 26.962 16.4477 26.962 17C26.962 17.5523 27.4097 18 27.962 18ZM30 30C31.104 30 32 29.104 32 28C32 26.896 31.104 26 30 26C28.896 26 28 26.896 28 28C28 29.104 28.896 30 30 30ZM40 28C40 29.104 39.104 30 38 30C36.896 30 36 29.104 36 28C36 26.896 36.896 26 38 26C39.104 26 40 26.896 40 28ZM34 26C35.104 26 36 25.104 36 24C36 22.896 35.104 22 34 22C32.896 22 32 22.896 32 24C32 25.104 32.896 26 34 26ZM36 32C36 33.104 35.104 34 34 34C32.896 34 32 33.104 32 32C32 30.896 32.896 30 34 30C35.104 30 36 30.896 36 32ZM13 33V29H9C8.44772 29 8 28.5523 8 28C8 27.4477 8.44772 27 9 27H13V23C13 22.4477 13.4477 22 14 22C14.5523 22 15 22.4477 15 23V27H19C19.5523 27 20 27.4477 20 28C20 28.5523 19.5523 29 19 29H15V33C15 33.5523 14.5523 34 14 34C13.4477 34 13 33.5523 13 33Z" fill="#000000"/>
</g>
</g>
</svg>