<?xml version="1.0" encoding="iso-8859-1"?>
<!-- Uploaded to: SVG Repo, www.svgrepo.com, Generator: SVG Repo Mixer Tools -->
<svg fill="#000000" height="800px" width="800px" version="1.1" id="Layer_1" xmlns="http://www.w3.org/2000/svg" xmlns:xlink="http://www.w3.org/1999/xlink" 
	 viewBox="0 0 511.997 511.997" xml:space="preserve">
<g>
	<g>
		<g>
			<path d="M405.511,213.332h-12.979v-82.825c0-24.951-20.227-45.175-45.175-45.175h-1.084l-5.842-10.177
				c-5.516-9.609-8.373-20.161-8.373-30.841C332.057,19.557,309.607,0,282.453,0h-87.049c-27.153,0-49.596,19.556-49.596,44.314
				c0,10.671-2.862,21.224-8.382,30.841l-5.836,10.177h-1.083c-24.954,0-45.175,20.222-45.175,45.175V381.49
				c0,24.954,20.222,45.175,45.175,45.175h1.08l5.842,10.177c5.516,9.609,8.373,20.161,8.373,30.841
				c0,24.757,22.45,44.314,49.604,44.314h87.049c27.153,0,49.596-19.556,49.596-44.314c0-10.671,2.862-21.224,8.382-30.841
				l5.836-10.177h1.087c24.948,0,45.175-20.224,45.175-45.175v-82.825h12.979c11.685,0,21.154-9.47,21.154-21.154v-43.025
				C426.665,222.801,417.195,213.332,405.511,213.332z M152.229,83.648c6.99-12.178,10.645-25.656,10.645-39.334
				c0-14.769,14.319-27.247,32.529-27.247h87.049c18.212,0,32.538,12.48,32.538,27.247c0,13.685,3.65,27.162,10.639,39.337
				l0.965,1.681h-175.33L152.229,83.648z M325.63,428.349c-6.99,12.178-10.645,25.656-10.645,39.334
				c0,14.769-14.319,27.247-32.529,27.247h-87.049c-18.212,0-32.538-12.48-32.538-27.247c0-13.685-3.65-27.162-10.639-39.337
				l-0.965-1.681h175.33L325.63,428.349z M375.465,381.49c0,15.525-12.586,28.109-28.109,28.109h-6.004
				c-0.009,0-0.017-0.002-0.025-0.002h-204.8c-0.009,0-0.017,0.002-0.025,0.002h-5.994c-15.528,0-28.109-12.581-28.109-28.109
				V130.507c0-15.528,12.581-28.109,28.109-28.109h6c0.009,0,0.017,0.002,0.025,0.002h204.8c0.009,0,0.017-0.002,0.025-0.002h5.998
				c15.523,0,28.109,12.584,28.109,28.109v91.358v68.267V381.49z M409.598,277.511c0,2.259-1.829,4.087-4.087,4.087h-12.979v-51.2
				h12.979c2.259,0,4.087,1.829,4.087,4.087V277.511z"/>
			<path d="M306.933,233.807c-2.167-21.137-18.599-37.542-39.711-37.542c-11.169,0-21.438,3.981-28.772,10.963
				c-7.021-7.026-16.746-10.963-27.812-10.963c-21.113,0-37.544,16.405-39.711,37.542c-0.042,0.271-0.083,0.577-0.119,0.918
				c-0.381,3.586-0.074,8.204,1.326,13.715c2.92,11.54,9.715,21.99,19.247,30.03l42.072,35.268
				c3.171,2.659,7.793,2.658,10.965-0.001l42.044-35.251c9.549-8.054,16.345-18.503,19.268-30.044
				c1.399-5.511,1.706-10.13,1.324-13.716C307.015,234.384,306.975,234.078,306.933,233.807z M289.184,244.248
				c-2.021,7.98-6.83,15.375-13.708,21.176l-36.543,30.639l-36.57-30.655c-6.859-5.786-11.668-13.181-13.687-21.162
				c-0.897-3.53-1.069-6.114-0.898-7.716c0.006-0.055,0.105-0.773,0.105-0.773c1.227-12.882,10.721-22.424,22.754-22.424
				c9.383,0,16.43,4.389,19.9,12.053c3.027,6.685,12.521,6.685,15.548,0c3.322-7.338,11.389-12.053,21.137-12.053
				c12.033,0,21.527,9.542,22.754,22.424l0.14,0.925C290.251,238.133,290.079,240.72,289.184,244.248z"/>
		</g>
	</g>
</g>
</svg>